<!-- v3.0 -->
<svg xmlns="http://www.w3.org/2000/svg" viewBox="0 0 56 48">
  <style>
    :root {
      --pixel-skin: #FFD5B8;
      --pixel-skin-shadow: #E8C4A0;
      --pixel-dark: #2D2D2D;
      --pixel-hair: #4A3728;
      --pixel-shirt: #4CAF50;
      --pixel-shirt-shadow: #3D8B40;
      --pixel-shorts: #1E88E5;
      --pixel-shoes: #424242;
      --pixel-hold: #FF5722;
    }
    .pulse { animation: pulse 1.6s ease-in-out infinite; }
    @keyframes pulse {
      0%, 100% { opacity: 1; }
      50% { opacity: 0.3; }
    }
  </style>

  <!-- Статичная поза: растяжка бабочка (сидя, стопы вместе, колени в стороны) -->

  <!-- Голова -->
  <rect x="22" y="4" width="12" height="10" fill="var(--pixel-skin)"/>
  <rect x="24" y="8" width="2" height="2" fill="var(--pixel-dark)"/>
  <rect x="30" y="8" width="2" height="2" fill="var(--pixel-dark)"/>
  <rect x="22" y="2" width="12" height="4" fill="var(--pixel-hair)"/>

  <!-- Шея -->
  <rect x="26" y="14" width="4" height="2" fill="var(--pixel-skin)"/>

  <!-- Тело (наклон вперёд) -->
  <rect x="20" y="16" width="16" height="12" fill="var(--pixel-shirt)"/>
  <rect x="20" y="26" width="16" height="2" fill="var(--pixel-shirt-shadow)"/>

  <!-- Шорты/таз -->
  <rect x="22" y="28" width="12" height="6" fill="var(--pixel-shorts)"/>

  <!-- Левая нога (колено влево) -->
  <rect x="4" y="28" width="18" height="6" fill="var(--pixel-skin)"/>
  <rect x="2" y="32" width="6" height="4" fill="var(--pixel-skin-shadow)"/>

  <!-- Правая нога (колено вправо) -->
  <rect x="34" y="28" width="18" height="6" fill="var(--pixel-skin)"/>
  <rect x="48" y="32" width="6" height="4" fill="var(--pixel-skin-shadow)"/>

  <!-- Стопы вместе по центру -->
  <rect x="22" y="34" width="12" height="4" fill="var(--pixel-shoes)"/>

  <!-- Руки держат стопы -->
  <rect x="18" y="30" width="6" height="6" fill="var(--pixel-skin)"/>
  <rect x="32" y="30" width="6" height="6" fill="var(--pixel-skin)"/>

  <!-- Пол -->
  <rect x="0" y="40" width="56" height="2" fill="var(--pixel-dark)" opacity="0.3"/>

  <!-- Пульсирующий индикатор удержания -->
  <rect class="pulse" x="24" y="44" width="8" height="3" fill="var(--pixel-hold)"/>
</svg>
