<svg xmlns="http://www.w3.org/2000/svg" viewBox="0 0 64 55">
  <style>
    :root {
      --pixel-skin: #FFD5B8;
      --pixel-dark: #2D2D2D;
      --pixel-hair: #4A3728;
      --pixel-shirt: #4CAF50;
      --pixel-shorts: #1E88E5;
      --pixel-shoes: #424242;
    }
    .frame { opacity: 0; }
    .frame1 { animation: frame1 3.2s steps(1) infinite; }
    .frame2 { animation: frame2 3.2s steps(1) infinite; }
    .frame3 { animation: frame3 3.2s steps(1) infinite; }
    .frame4 { animation: frame4 3.2s steps(1) infinite; }

    @keyframes frame1 {
      0%, 100% { opacity: 1; }
      12.5% { opacity: 0; }
    }
    @keyframes frame2 {
      0% { opacity: 0; }
      12.5%, 87.5% { opacity: 1; }
      25%, 75% { opacity: 0; }
    }
    @keyframes frame3 {
      0% { opacity: 0; }
      25%, 75% { opacity: 1; }
      37.5%, 62.5% { opacity: 0; }
    }
    @keyframes frame4 {
      0% { opacity: 0; }
      37.5%, 62.5% { opacity: 1; }
      50% { opacity: 0; }
    }
  </style>

  <!-- Кадр 1: Исходное положение -->
  <g class="frame frame1">
    <rect x="24" y="2" width="12" height="12" fill="var(--pixel-skin)"/>
    <rect x="26" y="6" width="2" height="2" fill="var(--pixel-dark)"/>
    <rect x="32" y="6" width="2" height="2" fill="var(--pixel-dark)"/>
    <rect x="24" y="0" width="12" height="4" fill="var(--pixel-hair)"/>
    <rect x="28" y="14" width="4" height="2" fill="var(--pixel-skin)"/>
    <rect x="22" y="16" width="16" height="14" fill="var(--pixel-shirt)"/>
    <rect x="18" y="30" width="8" height="4" fill="var(--pixel-skin)"/>
    <rect x="34" y="30" width="8" height="4" fill="var(--pixel-skin)"/>
    <rect x="22" y="30" width="16" height="6" fill="var(--pixel-shorts)"/>
    <rect x="8" y="36" width="16" height="6" fill="var(--pixel-skin)"/>
    <rect x="36" y="36" width="16" height="6" fill="var(--pixel-skin)"/>
    <rect x="16" y="42" width="12" height="4" fill="var(--pixel-skin)"/>
    <rect x="32" y="42" width="12" height="4" fill="var(--pixel-skin)"/>
    <rect x="24" y="46" width="6" height="4" fill="var(--pixel-shoes)"/>
    <rect x="30" y="46" width="6" height="4" fill="var(--pixel-shoes)"/>
    <rect x="0" y="50" width="64" height="2" fill="var(--pixel-dark)" opacity="0.3"/>
  </g>

  <!-- Кадр 2: Колени опускаются -->
  <g class="frame frame2">
    <rect x="24" y="2" width="12" height="12" fill="var(--pixel-skin)"/>
    <rect x="26" y="6" width="2" height="2" fill="var(--pixel-dark)"/>
    <rect x="32" y="6" width="2" height="2" fill="var(--pixel-dark)"/>
    <rect x="24" y="0" width="12" height="4" fill="var(--pixel-hair)"/>
    <rect x="28" y="14" width="4" height="2" fill="var(--pixel-skin)"/>
    <rect x="22" y="16" width="16" height="14" fill="var(--pixel-shirt)"/>
    <rect x="16" y="32" width="10" height="4" fill="var(--pixel-skin)"/>
    <rect x="34" y="32" width="10" height="4" fill="var(--pixel-skin)"/>
    <rect x="22" y="30" width="16" height="6" fill="var(--pixel-shorts)"/>
    <rect x="4" y="38" width="18" height="6" fill="var(--pixel-skin)"/>
    <rect x="38" y="38" width="18" height="6" fill="var(--pixel-skin)"/>
    <rect x="14" y="44" width="14" height="4" fill="var(--pixel-skin)"/>
    <rect x="32" y="44" width="14" height="4" fill="var(--pixel-skin)"/>
    <rect x="24" y="46" width="6" height="4" fill="var(--pixel-shoes)"/>
    <rect x="30" y="46" width="6" height="4" fill="var(--pixel-shoes)"/>
    <rect x="0" y="50" width="64" height="2" fill="var(--pixel-dark)" opacity="0.3"/>
  </g>

  <!-- Кадр 3: Колени низко -->
  <g class="frame frame3">
    <rect x="24" y="2" width="12" height="12" fill="var(--pixel-skin)"/>
    <rect x="26" y="6" width="2" height="2" fill="var(--pixel-dark)"/>
    <rect x="32" y="6" width="2" height="2" fill="var(--pixel-dark)"/>
    <rect x="24" y="0" width="12" height="4" fill="var(--pixel-hair)"/>
    <rect x="28" y="14" width="4" height="2" fill="var(--pixel-skin)"/>
    <rect x="22" y="16" width="16" height="14" fill="var(--pixel-shirt)"/>
    <rect x="14" y="34" width="12" height="4" fill="var(--pixel-skin)"/>
    <rect x="34" y="34" width="12" height="4" fill="var(--pixel-skin)"/>
    <rect x="22" y="30" width="16" height="6" fill="var(--pixel-shorts)"/>
    <rect x="2" y="40" width="20" height="6" fill="var(--pixel-skin)"/>
    <rect x="38" y="40" width="20" height="6" fill="var(--pixel-skin)"/>
    <rect x="12" y="44" width="16" height="4" fill="var(--pixel-skin)"/>
    <rect x="32" y="44" width="16" height="4" fill="var(--pixel-skin)"/>
    <rect x="24" y="46" width="6" height="4" fill="var(--pixel-shoes)"/>
    <rect x="30" y="46" width="6" height="4" fill="var(--pixel-shoes)"/>
    <rect x="0" y="50" width="64" height="2" fill="var(--pixel-dark)" opacity="0.3"/>
  </g>

  <!-- Кадр 4: Максимальное раскрытие -->
  <g class="frame frame4">
    <rect x="24" y="2" width="12" height="12" fill="var(--pixel-skin)"/>
    <rect x="26" y="6" width="2" height="2" fill="var(--pixel-dark)"/>
    <rect x="32" y="6" width="2" height="2" fill="var(--pixel-dark)"/>
    <rect x="24" y="0" width="12" height="4" fill="var(--pixel-hair)"/>
    <rect x="28" y="14" width="4" height="2" fill="var(--pixel-skin)"/>
    <rect x="22" y="16" width="16" height="14" fill="var(--pixel-shirt)"/>
    <rect x="12" y="36" width="14" height="4" fill="var(--pixel-skin)"/>
    <rect x="34" y="36" width="14" height="4" fill="var(--pixel-skin)"/>
    <rect x="22" y="30" width="16" height="6" fill="var(--pixel-shorts)"/>
    <rect x="0" y="42" width="22" height="6" fill="var(--pixel-skin)"/>
    <rect x="38" y="42" width="22" height="6" fill="var(--pixel-skin)"/>
    <rect x="10" y="44" width="18" height="4" fill="var(--pixel-skin)"/>
    <rect x="32" y="44" width="18" height="4" fill="var(--pixel-skin)"/>
    <rect x="24" y="46" width="6" height="4" fill="var(--pixel-shoes)"/>
    <rect x="30" y="46" width="6" height="4" fill="var(--pixel-shoes)"/>
    <rect x="0" y="50" width="64" height="2" fill="var(--pixel-dark)" opacity="0.3"/>
  </g>
</svg>
