<!-- v3.0 -->
<svg xmlns="http://www.w3.org/2000/svg" viewBox="0 0 48 72">
  <style>
    :root {
      --pixel-skin: #FFD5B8;
      --pixel-dark: #2D2D2D;
      --pixel-hair: #4A3728;
      --pixel-shirt: #4CAF50;
      --pixel-shorts: #1E88E5;
      --pixel-shoes: #424242;
      --pixel-hold: #FF5722;
      --pixel-step: #795548;
    }
    .pulse { animation: pulse 1.6s ease-in-out infinite; }
    @keyframes pulse {
      0%, 100% { opacity: 0.9; }
      50% { opacity: 0.4; }
    }
  </style>

  <!-- Ступенька -->
  <rect x="0" y="48" width="48" height="10" fill="var(--pixel-step)"/>

  <!-- Растяжка икр на ступеньке -->
  <rect x="18" y="4" width="12" height="12" fill="var(--pixel-skin)"/>
  <rect x="20" y="8" width="2" height="2" fill="var(--pixel-dark)"/>
  <rect x="26" y="8" width="2" height="2" fill="var(--pixel-dark)"/>
  <rect x="18" y="2" width="12" height="4" fill="var(--pixel-hair)"/>

  <!-- Тело -->
  <rect x="16" y="16" width="16" height="16" fill="var(--pixel-shirt)"/>

  <!-- Руки вдоль тела -->
  <rect x="10" y="20" width="6" height="12" fill="var(--pixel-skin)"/>
  <rect x="32" y="20" width="6" height="12" fill="var(--pixel-skin)"/>

  <!-- Шорты -->
  <rect x="18" y="32" width="12" height="8" fill="var(--pixel-shorts)"/>

  <!-- Одна нога на ступеньке (пятка свисает) -->
  <rect x="16" y="40" width="6" height="10" fill="var(--pixel-skin)"/>
  <rect x="14" y="48" width="8" height="4" fill="var(--pixel-shoes)"/>
  <rect x="14" y="52" width="8" height="4" fill="var(--pixel-shoes)"/>

  <!-- Другая нога стоит нормально -->
  <rect x="26" y="40" width="6" height="10" fill="var(--pixel-skin)"/>
  <rect x="24" y="48" width="8" height="4" fill="var(--pixel-shoes)"/>

  <!-- Тень -->
  <rect x="0" y="60" width="48" height="2" fill="var(--pixel-dark)" opacity="0.3"/>

  <!-- Пульсирующий индикатор -->
  <rect class="pulse" x="20" y="66" width="8" height="4" fill="var(--pixel-hold)"/>
</svg>
