<svg xmlns="http://www.w3.org/2000/svg" viewBox="0 0 48 80">
  <style>
    :root {
      --pixel-skin: #FFD5B8;
      --pixel-dark: #2D2D2D;
      --pixel-hair: #4A3728;
      --pixel-shirt: #4CAF50;
      --pixel-shorts: #1E88E5;
      --pixel-shoes: #424242;
      --pixel-bar: #666666;
      --pixel-accent: #FF9800;
    }
    .pulse { animation: pulse 1.6s ease-in-out infinite; }
    @keyframes pulse {
      0%, 100% { opacity: 0.8; r: 4; }
      50% { opacity: 0.5; r: 3; }
    }
    .sway { animation: sway 2s ease-in-out infinite; }
    @keyframes sway {
      0%, 100% { transform: translateX(0); }
      50% { transform: translateX(2px); }
    }
  </style>

  <!-- Турник -->
  <rect x="0" y="4" width="48" height="6" fill="var(--pixel-bar)"/>
  <rect x="0" y="0" width="4" height="10" fill="var(--pixel-bar)"/>
  <rect x="44" y="0" width="4" height="10" fill="var(--pixel-bar)"/>

  <g class="sway">
    <!-- Руки на турнике -->
    <rect x="14" y="10" width="6" height="8" fill="var(--pixel-skin)"/>
    <rect x="28" y="10" width="6" height="8" fill="var(--pixel-skin)"/>

    <!-- Предплечья -->
    <rect x="16" y="18" width="4" height="8" fill="var(--pixel-skin)"/>
    <rect x="28" y="18" width="4" height="8" fill="var(--pixel-skin)"/>

    <!-- Плечи и тело -->
    <rect x="14" y="26" width="6" height="4" fill="var(--pixel-shirt)"/>
    <rect x="28" y="26" width="6" height="4" fill="var(--pixel-shirt)"/>
    <rect x="16" y="30" width="16" height="16" fill="var(--pixel-shirt)"/>

    <!-- Голова -->
    <rect x="18" y="26" width="12" height="12" fill="var(--pixel-skin)"/>
    <rect x="20" y="30" width="2" height="2" fill="var(--pixel-dark)"/>
    <rect x="26" y="30" width="2" height="2" fill="var(--pixel-dark)"/>
    <rect x="18" y="24" width="12" height="4" fill="var(--pixel-hair)"/>

    <!-- Шорты -->
    <rect x="18" y="46" width="12" height="8" fill="var(--pixel-shorts)"/>

    <!-- Ноги -->
    <rect x="18" y="54" width="5" height="16" fill="var(--pixel-skin)"/>
    <rect x="25" y="54" width="5" height="16" fill="var(--pixel-skin)"/>

    <!-- Обувь -->
    <rect x="16" y="70" width="8" height="4" fill="var(--pixel-shoes)"/>
    <rect x="24" y="70" width="8" height="4" fill="var(--pixel-shoes)"/>
  </g>

  <!-- Таймер (статическое упражнение) -->
  <circle class="pulse" cx="24" cy="78" r="4" fill="var(--pixel-accent)"/>
</svg>
