<svg xmlns="http://www.w3.org/2000/svg" viewBox="0 0 48 80">
  <style>
    :root {
      --pixel-skin: #FFD5B8;
      --pixel-dark: #2D2D2D;
      --pixel-hair: #4A3728;
      --pixel-shirt: #4CAF50;
      --pixel-shorts: #1E88E5;
      --pixel-shoes: #424242;
      --pixel-bench: #8B4513;
    }
    .frame { opacity: 0; }
    .frame1 { animation: frame1 4s steps(1) infinite; }
    .frame2 { animation: frame2 4s steps(1) infinite; }
    .frame3 { animation: frame3 4s steps(1) infinite; }
    .frame4 { animation: frame4 4s steps(1) infinite; }

    @keyframes frame1 { 0%, 100% { opacity: 1; } 12.5% { opacity: 0; } }
    @keyframes frame2 { 0% { opacity: 0; } 12.5%, 87.5% { opacity: 1; } 25%, 75% { opacity: 0; } }
    @keyframes frame3 { 0% { opacity: 0; } 25%, 75% { opacity: 1; } 37.5%, 62.5% { opacity: 0; } }
    @keyframes frame4 { 0% { opacity: 0; } 37.5%, 62.5% { opacity: 1; } 50% { opacity: 0; } }
  </style>

  <!-- Скамья -->
  <rect x="8" y="66" width="32" height="6" fill="var(--pixel-bench)"/>
  <rect x="4" y="72" width="8" height="6" fill="var(--pixel-bench)"/>
  <rect x="36" y="72" width="8" height="6" fill="var(--pixel-bench)"/>

  <!-- Кадр 1: Лежа на скамье -->
  <g class="frame frame1">
    <rect x="10" y="54" width="12" height="12" fill="var(--pixel-skin)"/>
    <rect x="16" y="58" width="2" height="2" fill="var(--pixel-dark)"/>
    <rect x="10" y="52" width="12" height="4" fill="var(--pixel-hair)"/>
    <!-- Руки держат скамью -->
    <rect x="4" y="60" width="8" height="6" fill="var(--pixel-skin)"/>
    <rect x="36" y="60" width="8" height="6" fill="var(--pixel-skin)"/>
    <rect x="18" y="46" width="12" height="10" fill="var(--pixel-shirt)"/>
    <rect x="18" y="36" width="12" height="10" fill="var(--pixel-shorts)"/>
    <rect x="18" y="20" width="6" height="16" fill="var(--pixel-skin)"/>
    <rect x="24" y="20" width="6" height="16" fill="var(--pixel-skin)"/>
    <rect x="16" y="12" width="8" height="10" fill="var(--pixel-shoes)"/>
    <rect x="24" y="12" width="8" height="10" fill="var(--pixel-shoes)"/>
  </g>

  <!-- Кадр 2: Подъём тела -->
  <g class="frame frame2">
    <rect x="10" y="54" width="12" height="12" fill="var(--pixel-skin)"/>
    <rect x="16" y="58" width="2" height="2" fill="var(--pixel-dark)"/>
    <rect x="10" y="52" width="12" height="4" fill="var(--pixel-hair)"/>
    <rect x="4" y="60" width="8" height="6" fill="var(--pixel-skin)"/>
    <rect x="36" y="60" width="8" height="6" fill="var(--pixel-skin)"/>
    <rect x="18" y="42" width="12" height="14" fill="var(--pixel-shirt)"/>
    <rect x="18" y="30" width="12" height="12" fill="var(--pixel-shorts)"/>
    <rect x="18" y="14" width="6" height="16" fill="var(--pixel-skin)"/>
    <rect x="24" y="14" width="6" height="16" fill="var(--pixel-skin)"/>
    <rect x="16" y="6" width="8" height="10" fill="var(--pixel-shoes)"/>
    <rect x="24" y="6" width="8" height="10" fill="var(--pixel-shoes)"/>
  </g>

  <!-- Кадр 3: Полный подъём (горизонтально) -->
  <g class="frame frame3">
    <rect x="10" y="54" width="12" height="12" fill="var(--pixel-skin)"/>
    <rect x="16" y="58" width="2" height="2" fill="var(--pixel-dark)"/>
    <rect x="10" y="52" width="12" height="4" fill="var(--pixel-hair)"/>
    <rect x="4" y="60" width="8" height="6" fill="var(--pixel-skin)"/>
    <rect x="36" y="60" width="8" height="6" fill="var(--pixel-skin)"/>
    <rect x="18" y="38" width="12" height="16" fill="var(--pixel-shirt)"/>
    <rect x="18" y="26" width="12" height="12" fill="var(--pixel-shorts)"/>
    <rect x="18" y="8" width="6" height="18" fill="var(--pixel-skin)"/>
    <rect x="24" y="8" width="6" height="18" fill="var(--pixel-skin)"/>
    <rect x="16" y="2" width="8" height="8" fill="var(--pixel-shoes)"/>
    <rect x="24" y="2" width="8" height="8" fill="var(--pixel-shoes)"/>
  </g>

  <!-- Кадр 4: Опускание -->
  <g class="frame frame4">
    <rect x="10" y="54" width="12" height="12" fill="var(--pixel-skin)"/>
    <rect x="16" y="58" width="2" height="2" fill="var(--pixel-dark)"/>
    <rect x="10" y="52" width="12" height="4" fill="var(--pixel-hair)"/>
    <rect x="4" y="60" width="8" height="6" fill="var(--pixel-skin)"/>
    <rect x="36" y="60" width="8" height="6" fill="var(--pixel-skin)"/>
    <rect x="18" y="42" width="12" height="14" fill="var(--pixel-shirt)"/>
    <rect x="18" y="30" width="12" height="12" fill="var(--pixel-shorts)"/>
    <rect x="18" y="14" width="6" height="16" fill="var(--pixel-skin)"/>
    <rect x="24" y="14" width="6" height="16" fill="var(--pixel-skin)"/>
    <rect x="16" y="6" width="8" height="10" fill="var(--pixel-shoes)"/>
    <rect x="24" y="6" width="8" height="10" fill="var(--pixel-shoes)"/>
  </g>
</svg>
