<svg xmlns="http://www.w3.org/2000/svg" viewBox="0 0 64 70">
  <style>
    :root {
      --pixel-skin: #FFD5B8;
      --pixel-dark: #2D2D2D;
      --pixel-hair: #4A3728;
      --pixel-shirt: #4CAF50;
      --pixel-shorts: #1E88E5;
      --pixel-shoes: #424242;
      --pixel-guide: #FF5722;
    }
    .frame { opacity: 0; }
    .frame1 { animation: frame1 3.2s steps(1) infinite; }
    .frame2 { animation: frame2 3.2s steps(1) infinite; }
    .frame3 { animation: frame3 3.2s steps(1) infinite; }
    .frame4 { animation: frame4 3.2s steps(1) infinite; }

    @keyframes frame1 {
      0%, 100% { opacity: 1; }
      12.5% { opacity: 0; }
    }
    @keyframes frame2 {
      0% { opacity: 0; }
      12.5%, 87.5% { opacity: 1; }
      25%, 75% { opacity: 0; }
    }
    @keyframes frame3 {
      0% { opacity: 0; }
      25%, 75% { opacity: 1; }
      37.5%, 62.5% { opacity: 0; }
    }
    @keyframes frame4 {
      0% { opacity: 0; }
      37.5%, 62.5% { opacity: 1; }
      50% { opacity: 0; }
    }
  </style>

  <!-- Кадр 1: Исходная позиция -->
  <g class="frame frame1">
    <rect x="24" y="2" width="10" height="10" fill="var(--pixel-skin)"/>
    <rect x="26" y="5" width="2" height="2" fill="var(--pixel-dark)"/>
    <rect x="24" y="0" width="10" height="3" fill="var(--pixel-hair)"/>
    <rect x="27" y="12" width="4" height="2" fill="var(--pixel-skin)"/>
    <rect x="22" y="14" width="14" height="14" fill="var(--pixel-shirt)"/>
    <rect x="18" y="16" width="4" height="10" fill="var(--pixel-skin)"/>
    <rect x="36" y="16" width="4" height="10" fill="var(--pixel-skin)"/>
    <rect x="22" y="28" width="14" height="6" fill="var(--pixel-shorts)"/>
    <rect x="8" y="34" width="16" height="6" fill="var(--pixel-skin)"/>
    <rect x="4" y="40" width="8" height="18" fill="var(--pixel-skin)"/>
    <rect x="2" y="58" width="12" height="4" fill="var(--pixel-shoes)"/>
    <rect x="34" y="34" width="14" height="6" fill="var(--pixel-skin)"/>
    <rect x="44" y="40" width="8" height="18" fill="var(--pixel-skin)"/>
    <rect x="46" y="58" width="12" height="4" fill="var(--pixel-shoes)"/>
    <rect x="0" y="62" width="64" height="2" fill="var(--pixel-dark)" opacity="0.3"/>
  </g>

  <!-- Кадр 2: Начало опускания -->
  <g class="frame frame2">
    <rect x="24" y="6" width="10" height="10" fill="var(--pixel-skin)"/>
    <rect x="26" y="9" width="2" height="2" fill="var(--pixel-dark)"/>
    <rect x="24" y="4" width="10" height="3" fill="var(--pixel-hair)"/>
    <rect x="27" y="16" width="4" height="2" fill="var(--pixel-skin)"/>
    <rect x="22" y="18" width="14" height="14" fill="var(--pixel-shirt)"/>
    <rect x="18" y="20" width="4" height="10" fill="var(--pixel-skin)"/>
    <rect x="36" y="20" width="4" height="10" fill="var(--pixel-skin)"/>
    <rect x="22" y="32" width="14" height="6" fill="var(--pixel-shorts)"/>
    <rect x="10" y="38" width="14" height="6" fill="var(--pixel-skin)"/>
    <rect x="4" y="44" width="8" height="14" fill="var(--pixel-skin)"/>
    <rect x="2" y="58" width="12" height="4" fill="var(--pixel-shoes)"/>
    <rect x="34" y="38" width="12" height="6" fill="var(--pixel-skin)"/>
    <rect x="42" y="44" width="8" height="8" fill="var(--pixel-skin)"/>
    <rect x="44" y="52" width="8" height="6" fill="var(--pixel-skin)"/>
    <rect x="48" y="58" width="10" height="4" fill="var(--pixel-shoes)"/>
    <rect x="0" y="62" width="64" height="2" fill="var(--pixel-dark)" opacity="0.3"/>
  </g>

  <!-- Кадр 3: Глубже -->
  <g class="frame frame3">
    <rect x="24" y="12" width="10" height="10" fill="var(--pixel-skin)"/>
    <rect x="26" y="15" width="2" height="2" fill="var(--pixel-dark)"/>
    <rect x="24" y="10" width="10" height="3" fill="var(--pixel-hair)"/>
    <rect x="27" y="22" width="4" height="2" fill="var(--pixel-skin)"/>
    <rect x="22" y="24" width="14" height="12" fill="var(--pixel-shirt)"/>
    <rect x="18" y="26" width="4" height="8" fill="var(--pixel-skin)"/>
    <rect x="36" y="26" width="4" height="8" fill="var(--pixel-skin)"/>
    <rect x="20" y="36" width="18" height="6" fill="var(--pixel-shorts)"/>
    <rect x="10" y="42" width="12" height="8" fill="var(--pixel-skin)"/>
    <rect x="4" y="50" width="8" height="8" fill="var(--pixel-skin)"/>
    <rect x="2" y="58" width="12" height="4" fill="var(--pixel-shoes)"/>
    <rect x="36" y="42" width="10" height="6" fill="var(--pixel-skin)"/>
    <rect x="42" y="48" width="8" height="6" fill="var(--pixel-skin)"/>
    <rect x="46" y="54" width="6" height="4" fill="var(--pixel-skin)"/>
    <rect x="48" y="58" width="10" height="4" fill="var(--pixel-shoes)"/>
    <rect x="0" y="62" width="64" height="2" fill="var(--pixel-dark)" opacity="0.3"/>
  </g>

  <!-- Кадр 4: Нижняя точка -->
  <g class="frame frame4">
    <rect x="24" y="18" width="10" height="10" fill="var(--pixel-skin)"/>
    <rect x="26" y="21" width="2" height="2" fill="var(--pixel-dark)"/>
    <rect x="24" y="16" width="10" height="3" fill="var(--pixel-hair)"/>
    <rect x="27" y="28" width="4" height="2" fill="var(--pixel-skin)"/>
    <rect x="22" y="30" width="14" height="10" fill="var(--pixel-shirt)"/>
    <rect x="18" y="32" width="4" height="6" fill="var(--pixel-skin)"/>
    <rect x="36" y="32" width="4" height="6" fill="var(--pixel-skin)"/>
    <rect x="18" y="40" width="22" height="6" fill="var(--pixel-shorts)"/>
    <rect x="8" y="46" width="12" height="6" fill="var(--pixel-skin)"/>
    <rect x="4" y="52" width="6" height="6" fill="var(--pixel-skin)"/>
    <rect x="2" y="58" width="10" height="4" fill="var(--pixel-shoes)"/>
    <rect x="38" y="46" width="8" height="6" fill="var(--pixel-skin)"/>
    <rect x="44" y="52" width="6" height="6" fill="var(--pixel-skin)"/>
    <rect x="48" y="56" width="8" height="6" fill="var(--pixel-shoes)"/>
    <rect x="6" y="46" width="2" height="12" fill="var(--pixel-guide)" opacity="0.5"/>
    <rect x="0" y="62" width="64" height="2" fill="var(--pixel-dark)" opacity="0.3"/>
  </g>
</svg>
