<svg xmlns="http://www.w3.org/2000/svg" viewBox="0 0 80 45">
  <style>
    :root {
      --pixel-skin: #FFD5B8;
      --pixel-dark: #2D2D2D;
      --pixel-hair: #4A3728;
      --pixel-shirt: #4CAF50;
      --pixel-shorts: #1E88E5;
      --pixel-shoes: #424242;
    }
    .frame { opacity: 0; }
    .frame1 { animation: frame1 3.2s steps(1) infinite; }
    .frame2 { animation: frame2 3.2s steps(1) infinite; }
    .frame3 { animation: frame3 3.2s steps(1) infinite; }
    .frame4 { animation: frame4 3.2s steps(1) infinite; }

    @keyframes frame1 {
      0%, 100% { opacity: 1; }
      12.5% { opacity: 0; }
    }
    @keyframes frame2 {
      0% { opacity: 0; }
      12.5%, 87.5% { opacity: 1; }
      25%, 75% { opacity: 0; }
    }
    @keyframes frame3 {
      0% { opacity: 0; }
      25%, 75% { opacity: 1; }
      37.5%, 62.5% { opacity: 0; }
    }
    @keyframes frame4 {
      0% { opacity: 0; }
      37.5%, 62.5% { opacity: 1; }
      50% { opacity: 0; }
    }
  </style>

  <!-- Кадр 1: Планка, обе ноги на полу -->
  <g class="frame frame1">
    <rect x="6" y="14" width="10" height="10" fill="var(--pixel-skin)"/>
    <rect x="8" y="17" width="2" height="2" fill="var(--pixel-dark)"/>
    <rect x="6" y="12" width="10" height="4" fill="var(--pixel-hair)"/>
    <rect x="14" y="18" width="4" height="4" fill="var(--pixel-skin)"/>
    <rect x="16" y="16" width="34" height="10" fill="var(--pixel-shirt)"/>
    <rect x="50" y="16" width="10" height="10" fill="var(--pixel-shorts)"/>
    <rect x="16" y="26" width="12" height="4" fill="var(--pixel-skin)"/>
    <rect x="14" y="30" width="8" height="6" fill="var(--pixel-skin)"/>
    <rect x="60" y="18" width="14" height="6" fill="var(--pixel-skin)"/>
    <rect x="72" y="24" width="6" height="12" fill="var(--pixel-skin)"/>
    <rect x="72" y="32" width="6" height="4" fill="var(--pixel-shoes)"/>
    <rect x="0" y="36" width="80" height="2" fill="var(--pixel-dark)" opacity="0.3"/>
  </g>

  <!-- Кадр 2: Одна нога начинает подниматься -->
  <g class="frame frame2">
    <rect x="6" y="14" width="10" height="10" fill="var(--pixel-skin)"/>
    <rect x="8" y="17" width="2" height="2" fill="var(--pixel-dark)"/>
    <rect x="6" y="12" width="10" height="4" fill="var(--pixel-hair)"/>
    <rect x="14" y="18" width="4" height="4" fill="var(--pixel-skin)"/>
    <rect x="16" y="16" width="34" height="10" fill="var(--pixel-shirt)"/>
    <rect x="50" y="16" width="10" height="10" fill="var(--pixel-shorts)"/>
    <rect x="16" y="26" width="12" height="4" fill="var(--pixel-skin)"/>
    <rect x="14" y="30" width="8" height="6" fill="var(--pixel-skin)"/>
    <rect x="60" y="14" width="16" height="5" fill="var(--pixel-skin)"/>
    <rect x="74" y="12" width="4" height="5" fill="var(--pixel-shoes)"/>
    <rect x="60" y="22" width="6" height="4" fill="var(--pixel-skin)"/>
    <rect x="64" y="26" width="6" height="10" fill="var(--pixel-skin)"/>
    <rect x="64" y="32" width="6" height="4" fill="var(--pixel-shoes)"/>
    <rect x="0" y="36" width="80" height="2" fill="var(--pixel-dark)" opacity="0.3"/>
  </g>

  <!-- Кадр 3: Нога максимально поднята -->
  <g class="frame frame3">
    <rect x="6" y="14" width="10" height="10" fill="var(--pixel-skin)"/>
    <rect x="8" y="17" width="2" height="2" fill="var(--pixel-dark)"/>
    <rect x="6" y="12" width="10" height="4" fill="var(--pixel-hair)"/>
    <rect x="14" y="18" width="4" height="4" fill="var(--pixel-skin)"/>
    <rect x="16" y="16" width="34" height="10" fill="var(--pixel-shirt)"/>
    <rect x="50" y="16" width="10" height="10" fill="var(--pixel-shorts)"/>
    <rect x="16" y="26" width="12" height="4" fill="var(--pixel-skin)"/>
    <rect x="14" y="30" width="8" height="6" fill="var(--pixel-skin)"/>
    <rect x="60" y="8" width="16" height="5" fill="var(--pixel-skin)"/>
    <rect x="74" y="6" width="4" height="5" fill="var(--pixel-shoes)"/>
    <rect x="60" y="22" width="6" height="4" fill="var(--pixel-skin)"/>
    <rect x="64" y="26" width="6" height="10" fill="var(--pixel-skin)"/>
    <rect x="64" y="32" width="6" height="4" fill="var(--pixel-shoes)"/>
    <rect x="0" y="36" width="80" height="2" fill="var(--pixel-dark)" opacity="0.3"/>
  </g>

  <!-- Кадр 4: Смена ноги -->
  <g class="frame frame4">
    <rect x="6" y="14" width="10" height="10" fill="var(--pixel-skin)"/>
    <rect x="8" y="17" width="2" height="2" fill="var(--pixel-dark)"/>
    <rect x="6" y="12" width="10" height="4" fill="var(--pixel-hair)"/>
    <rect x="14" y="18" width="4" height="4" fill="var(--pixel-skin)"/>
    <rect x="16" y="16" width="34" height="10" fill="var(--pixel-shirt)"/>
    <rect x="50" y="16" width="10" height="10" fill="var(--pixel-shorts)"/>
    <rect x="16" y="26" width="12" height="4" fill="var(--pixel-skin)"/>
    <rect x="14" y="30" width="8" height="6" fill="var(--pixel-skin)"/>
    <rect x="60" y="16" width="16" height="5" fill="var(--pixel-skin)"/>
    <rect x="74" y="14" width="4" height="5" fill="var(--pixel-shoes)"/>
    <rect x="60" y="20" width="6" height="4" fill="var(--pixel-skin)"/>
    <rect x="64" y="24" width="6" height="12" fill="var(--pixel-skin)"/>
    <rect x="64" y="32" width="6" height="4" fill="var(--pixel-shoes)"/>
    <rect x="0" y="36" width="80" height="2" fill="var(--pixel-dark)" opacity="0.3"/>
  </g>
</svg>
