<svg xmlns="http://www.w3.org/2000/svg" viewBox="0 0 80 45">
  <style>
    :root {
      --pixel-skin: #FFD5B8;
      --pixel-dark: #2D2D2D;
      --pixel-hair: #4A3728;
      --pixel-shirt: #4CAF50;
      --pixel-shorts: #1E88E5;
      --pixel-shoes: #424242;
      --pixel-accent: #FF9800;
    }
    .pulse { animation: pulse 1.6s ease-in-out infinite; }
    @keyframes pulse {
      0%, 100% { opacity: 0.8; r: 4; }
      50% { opacity: 0.5; r: 3; }
    }
  </style>

  <!-- Статичная поза планки -->
  <rect x="6" y="14" width="10" height="10" fill="var(--pixel-skin)"/>
  <rect x="8" y="17" width="2" height="2" fill="var(--pixel-dark)"/>
  <rect x="6" y="12" width="10" height="4" fill="var(--pixel-hair)"/>
  <rect x="14" y="18" width="4" height="4" fill="var(--pixel-skin)"/>
  <rect x="16" y="16" width="34" height="10" fill="var(--pixel-shirt)"/>
  <rect x="50" y="16" width="10" height="10" fill="var(--pixel-shorts)"/>
  <rect x="16" y="26" width="12" height="4" fill="var(--pixel-skin)"/>
  <rect x="16" y="30" width="4" height="6" fill="var(--pixel-skin)"/>
  <rect x="24" y="30" width="4" height="6" fill="var(--pixel-skin)"/>
  <rect x="14" y="32" width="6" height="4" fill="var(--pixel-skin)"/>
  <rect x="24" y="32" width="6" height="4" fill="var(--pixel-skin)"/>
  <rect x="60" y="18" width="14" height="6" fill="var(--pixel-skin)"/>
  <rect x="72" y="24" width="6" height="12" fill="var(--pixel-skin)"/>
  <rect x="72" y="32" width="6" height="4" fill="var(--pixel-shoes)"/>
  <rect x="0" y="36" width="80" height="2" fill="var(--pixel-dark)" opacity="0.3"/>

  <!-- Анимированный таймер/пульс -->
  <circle class="pulse" cx="40" cy="6" r="4" fill="var(--pixel-accent)"/>
</svg>
