<svg xmlns="http://www.w3.org/2000/svg" viewBox="0 0 80 40">
  <style>
    :root {
      --pixel-skin: #FFD5B8;
      --pixel-dark: #2D2D2D;
      --pixel-hair: #4A3728;
      --pixel-shirt: #4CAF50;
      --pixel-shorts: #1E88E5;
      --pixel-shoes: #424242;
    }
    .frame { opacity: 0; }
    .frame1 { animation: frame1 3.2s steps(1) infinite; }
    .frame2 { animation: frame2 3.2s steps(1) infinite; }
    .frame3 { animation: frame3 3.2s steps(1) infinite; }
    .frame4 { animation: frame4 3.2s steps(1) infinite; }

    @keyframes frame1 {
      0%, 100% { opacity: 1; }
      12.5% { opacity: 0; }
    }
    @keyframes frame2 {
      0% { opacity: 0; }
      12.5%, 87.5% { opacity: 1; }
      25%, 75% { opacity: 0; }
    }
    @keyframes frame3 {
      0% { opacity: 0; }
      25%, 75% { opacity: 1; }
      37.5%, 62.5% { opacity: 0; }
    }
    @keyframes frame4 {
      0% { opacity: 0; }
      37.5%, 62.5% { opacity: 1; }
      50% { opacity: 0; }
    }
  </style>

  <!-- Кадр 1: Ноги на полу -->
  <g class="frame frame1">
    <rect x="4" y="14" width="10" height="10" fill="var(--pixel-skin)"/>
    <rect x="6" y="18" width="2" height="2" fill="var(--pixel-dark)"/>
    <rect x="4" y="12" width="10" height="4" fill="var(--pixel-hair)"/>
    <rect x="2" y="22" width="12" height="4" fill="var(--pixel-skin)"/>
    <rect x="14" y="20" width="28" height="10" fill="var(--pixel-shirt)"/>
    <rect x="42" y="22" width="10" height="8" fill="var(--pixel-shorts)"/>
    <rect x="52" y="24" width="20" height="6" fill="var(--pixel-skin)"/>
    <rect x="70" y="24" width="6" height="6" fill="var(--pixel-shoes)"/>
    <rect x="0" y="30" width="80" height="2" fill="var(--pixel-dark)" opacity="0.3"/>
  </g>

  <!-- Кадр 2: Начало подъёма ног -->
  <g class="frame frame2">
    <rect x="4" y="14" width="10" height="10" fill="var(--pixel-skin)"/>
    <rect x="6" y="18" width="2" height="2" fill="var(--pixel-dark)"/>
    <rect x="4" y="12" width="10" height="4" fill="var(--pixel-hair)"/>
    <rect x="2" y="22" width="12" height="4" fill="var(--pixel-skin)"/>
    <rect x="14" y="20" width="28" height="10" fill="var(--pixel-shirt)"/>
    <rect x="42" y="24" width="10" height="6" fill="var(--pixel-shorts)"/>
    <rect x="52" y="20" width="20" height="6" fill="var(--pixel-skin)"/>
    <rect x="70" y="18" width="6" height="6" fill="var(--pixel-shoes)"/>
    <rect x="0" y="30" width="80" height="2" fill="var(--pixel-dark)" opacity="0.3"/>
  </g>

  <!-- Кадр 3: Ноги выше -->
  <g class="frame frame3">
    <rect x="4" y="14" width="10" height="10" fill="var(--pixel-skin)"/>
    <rect x="6" y="18" width="2" height="2" fill="var(--pixel-dark)"/>
    <rect x="4" y="12" width="10" height="4" fill="var(--pixel-hair)"/>
    <rect x="2" y="22" width="12" height="4" fill="var(--pixel-skin)"/>
    <rect x="14" y="20" width="28" height="10" fill="var(--pixel-shirt)"/>
    <rect x="42" y="26" width="10" height="4" fill="var(--pixel-shorts)"/>
    <rect x="52" y="14" width="20" height="6" fill="var(--pixel-skin)"/>
    <rect x="70" y="10" width="6" height="6" fill="var(--pixel-shoes)"/>
    <rect x="0" y="30" width="80" height="2" fill="var(--pixel-dark)" opacity="0.3"/>
  </g>

  <!-- Кадр 4: Максимальный подъём -->
  <g class="frame frame4">
    <rect x="4" y="14" width="10" height="10" fill="var(--pixel-skin)"/>
    <rect x="6" y="18" width="2" height="2" fill="var(--pixel-dark)"/>
    <rect x="4" y="12" width="10" height="4" fill="var(--pixel-hair)"/>
    <rect x="2" y="22" width="12" height="4" fill="var(--pixel-skin)"/>
    <rect x="14" y="20" width="28" height="10" fill="var(--pixel-shirt)"/>
    <rect x="42" y="26" width="10" height="4" fill="var(--pixel-shorts)"/>
    <rect x="52" y="8" width="20" height="6" fill="var(--pixel-skin)"/>
    <rect x="70" y="4" width="6" height="6" fill="var(--pixel-shoes)"/>
    <rect x="0" y="30" width="80" height="2" fill="var(--pixel-dark)" opacity="0.3"/>
  </g>
</svg>
