<!-- v3.0 -->
<svg xmlns="http://www.w3.org/2000/svg" viewBox="0 0 64 80">
  <style>
    :root {
      --pixel-skin: #FFD5B8;
      --pixel-dark: #2D2D2D;
      --pixel-hair: #4A3728;
      --pixel-shirt: #4CAF50;
      --pixel-shorts: #1E88E5;
      --pixel-shoes: #424242;
      --pixel-shoes-light: #757575;
      --pixel-guide: #FF5722;
    }
    .frame { opacity: 0; }
    .frame1 { animation: frame1 3.2s steps(1) infinite; }
    .frame2 { animation: frame2 3.2s steps(1) infinite; }
    .frame3 { animation: frame3 3.2s steps(1) infinite; }
    .frame4 { animation: frame4 3.2s steps(1) infinite; }

    /* Ping-pong: 0->1->2->3->2->1->0 = 6 steps * 400ms = 2400ms, but we use 3200ms for smoother loop */
    @keyframes frame1 {
      0%, 100% { opacity: 1; }
      12.5% { opacity: 0; }
    }
    @keyframes frame2 {
      0% { opacity: 0; }
      12.5%, 87.5% { opacity: 1; }
      25%, 75% { opacity: 0; }
    }
    @keyframes frame3 {
      0% { opacity: 0; }
      25%, 75% { opacity: 1; }
      37.5%, 62.5% { opacity: 0; }
    }
    @keyframes frame4 {
      0% { opacity: 0; }
      37.5%, 62.5% { opacity: 1; }
      50% { opacity: 0; }
    }
  </style>

  <!-- Кадр 1: Стоя прямо -->
  <g class="frame frame1">
    <rect x="26" y="4" width="12" height="12" fill="var(--pixel-skin)"/>
    <rect x="28" y="8" width="2" height="2" fill="var(--pixel-dark)"/>
    <rect x="34" y="8" width="2" height="2" fill="var(--pixel-dark)"/>
    <rect x="26" y="2" width="12" height="4" fill="var(--pixel-hair)"/>
    <rect x="24" y="4" width="2" height="6" fill="var(--pixel-hair)"/>
    <rect x="38" y="4" width="2" height="6" fill="var(--pixel-hair)"/>
    <rect x="29" y="16" width="6" height="2" fill="var(--pixel-skin)"/>
    <rect x="22" y="18" width="20" height="16" fill="var(--pixel-shirt)"/>
    <rect x="18" y="18" width="4" height="8" fill="var(--pixel-shirt)"/>
    <rect x="42" y="18" width="4" height="8" fill="var(--pixel-shirt)"/>
    <rect x="14" y="20" width="4" height="4" fill="var(--pixel-skin)"/>
    <rect x="46" y="20" width="4" height="4" fill="var(--pixel-skin)"/>
    <rect x="24" y="34" width="16" height="8" fill="var(--pixel-shorts)"/>
    <rect x="24" y="42" width="6" height="18" fill="var(--pixel-skin)"/>
    <rect x="34" y="42" width="6" height="18" fill="var(--pixel-skin)"/>
    <rect x="22" y="60" width="10" height="4" fill="var(--pixel-shoes)"/>
    <rect x="32" y="60" width="10" height="4" fill="var(--pixel-shoes)"/>
    <rect x="22" y="62" width="2" height="2" fill="var(--pixel-shoes-light)"/>
    <rect x="40" y="62" width="2" height="2" fill="var(--pixel-shoes-light)"/>
  </g>

  <!-- Кадр 2: Начало приседа -->
  <g class="frame frame2">
    <rect x="26" y="8" width="12" height="12" fill="var(--pixel-skin)"/>
    <rect x="28" y="12" width="2" height="2" fill="var(--pixel-dark)"/>
    <rect x="34" y="12" width="2" height="2" fill="var(--pixel-dark)"/>
    <rect x="26" y="6" width="12" height="4" fill="var(--pixel-hair)"/>
    <rect x="24" y="8" width="2" height="6" fill="var(--pixel-hair)"/>
    <rect x="38" y="8" width="2" height="6" fill="var(--pixel-hair)"/>
    <rect x="29" y="20" width="6" height="2" fill="var(--pixel-skin)"/>
    <rect x="22" y="22" width="20" height="14" fill="var(--pixel-shirt)"/>
    <rect x="18" y="22" width="4" height="8" fill="var(--pixel-shirt)"/>
    <rect x="42" y="22" width="4" height="8" fill="var(--pixel-shirt)"/>
    <rect x="12" y="24" width="6" height="4" fill="var(--pixel-skin)"/>
    <rect x="46" y="24" width="6" height="4" fill="var(--pixel-skin)"/>
    <rect x="24" y="36" width="16" height="8" fill="var(--pixel-shorts)"/>
    <rect x="22" y="44" width="6" height="8" fill="var(--pixel-skin)"/>
    <rect x="36" y="44" width="6" height="8" fill="var(--pixel-skin)"/>
    <rect x="20" y="52" width="6" height="10" fill="var(--pixel-skin)"/>
    <rect x="38" y="52" width="6" height="10" fill="var(--pixel-skin)"/>
    <rect x="18" y="62" width="10" height="4" fill="var(--pixel-shoes)"/>
    <rect x="36" y="62" width="10" height="4" fill="var(--pixel-shoes)"/>
  </g>

  <!-- Кадр 3: Полуприсед -->
  <g class="frame frame3">
    <rect x="26" y="14" width="12" height="12" fill="var(--pixel-skin)"/>
    <rect x="28" y="18" width="2" height="2" fill="var(--pixel-dark)"/>
    <rect x="34" y="18" width="2" height="2" fill="var(--pixel-dark)"/>
    <rect x="26" y="12" width="12" height="4" fill="var(--pixel-hair)"/>
    <rect x="24" y="14" width="2" height="6" fill="var(--pixel-hair)"/>
    <rect x="38" y="14" width="2" height="6" fill="var(--pixel-hair)"/>
    <rect x="29" y="26" width="6" height="2" fill="var(--pixel-skin)"/>
    <rect x="22" y="28" width="20" height="12" fill="var(--pixel-shirt)"/>
    <rect x="18" y="28" width="4" height="8" fill="var(--pixel-shirt)"/>
    <rect x="42" y="28" width="4" height="8" fill="var(--pixel-shirt)"/>
    <rect x="8" y="28" width="10" height="4" fill="var(--pixel-skin)"/>
    <rect x="46" y="28" width="10" height="4" fill="var(--pixel-skin)"/>
    <rect x="22" y="40" width="20" height="8" fill="var(--pixel-shorts)"/>
    <rect x="18" y="48" width="10" height="6" fill="var(--pixel-skin)"/>
    <rect x="36" y="48" width="10" height="6" fill="var(--pixel-skin)"/>
    <rect x="16" y="54" width="6" height="10" fill="var(--pixel-skin)"/>
    <rect x="42" y="54" width="6" height="10" fill="var(--pixel-skin)"/>
    <rect x="14" y="64" width="10" height="4" fill="var(--pixel-shoes)"/>
    <rect x="40" y="64" width="10" height="4" fill="var(--pixel-shoes)"/>
  </g>

  <!-- Кадр 4: Полный присед -->
  <g class="frame frame4">
    <rect x="26" y="20" width="12" height="12" fill="var(--pixel-skin)"/>
    <rect x="28" y="24" width="2" height="2" fill="var(--pixel-dark)"/>
    <rect x="34" y="24" width="2" height="2" fill="var(--pixel-dark)"/>
    <rect x="26" y="18" width="12" height="4" fill="var(--pixel-hair)"/>
    <rect x="24" y="20" width="2" height="6" fill="var(--pixel-hair)"/>
    <rect x="38" y="20" width="2" height="6" fill="var(--pixel-hair)"/>
    <rect x="29" y="32" width="6" height="2" fill="var(--pixel-skin)"/>
    <rect x="24" y="34" width="16" height="12" fill="var(--pixel-shirt)"/>
    <rect x="20" y="34" width="4" height="8" fill="var(--pixel-shirt)"/>
    <rect x="40" y="34" width="4" height="8" fill="var(--pixel-shirt)"/>
    <rect x="4" y="34" width="16" height="4" fill="var(--pixel-skin)"/>
    <rect x="44" y="34" width="16" height="4" fill="var(--pixel-skin)"/>
    <rect x="20" y="46" width="24" height="6" fill="var(--pixel-shorts)"/>
    <rect x="14" y="52" width="14" height="6" fill="var(--pixel-skin)"/>
    <rect x="36" y="52" width="14" height="6" fill="var(--pixel-skin)"/>
    <rect x="12" y="58" width="6" height="8" fill="var(--pixel-skin)"/>
    <rect x="46" y="58" width="6" height="8" fill="var(--pixel-skin)"/>
    <rect x="8" y="66" width="12" height="4" fill="var(--pixel-shoes)"/>
    <rect x="44" y="66" width="12" height="4" fill="var(--pixel-shoes)"/>
    <rect x="10" y="58" width="2" height="12" fill="var(--pixel-guide)" opacity="0.5"/>
    <rect x="52" y="58" width="2" height="12" fill="var(--pixel-guide)" opacity="0.5"/>
  </g>
</svg>
