<svg xmlns="http://www.w3.org/2000/svg" viewBox="0 0 48 72">
  <style>
    :root {
      --pixel-skin: #FFD5B8;
      --pixel-dark: #2D2D2D;
      --pixel-hair: #4A3728;
      --pixel-shirt: #4CAF50;
      --pixel-shorts: #1E88E5;
      --pixel-shoes: #424242;
      --pixel-wall: #9E9E9E;
    }
    .frame { opacity: 0; }
    .frame1 { animation: frame1 2s steps(1) infinite; }
    .frame2 { animation: frame2 2s steps(1) infinite; }

    @keyframes frame1 { 0%, 50% { opacity: 1; } 50%, 100% { opacity: 0; } }
    @keyframes frame2 { 0%, 50% { opacity: 0; } 50%, 100% { opacity: 1; } }
  </style>

  <!-- Стена -->
  <rect x="0" y="0" width="6" height="72" fill="var(--pixel-wall)"/>

  <!-- Кадр 1: Обе руки на стене -->
  <g class="frame frame1">
    <rect x="18" y="4" width="12" height="12" fill="var(--pixel-skin)"/>
    <rect x="20" y="8" width="2" height="2" fill="var(--pixel-dark)"/>
    <rect x="18" y="2" width="12" height="4" fill="var(--pixel-hair)"/>
    <rect x="16" y="16" width="16" height="18" fill="var(--pixel-shirt)"/>
    <!-- Обе руки на стене -->
    <rect x="4" y="18" width="12" height="6" fill="var(--pixel-skin)"/>
    <rect x="4" y="28" width="12" height="6" fill="var(--pixel-skin)"/>
    <rect x="18" y="34" width="12" height="10" fill="var(--pixel-shorts)"/>
    <rect x="18" y="44" width="6" height="18" fill="var(--pixel-skin)"/>
    <rect x="24" y="44" width="6" height="18" fill="var(--pixel-skin)"/>
    <rect x="16" y="60" width="8" height="4" fill="var(--pixel-shoes)"/>
    <rect x="24" y="60" width="8" height="4" fill="var(--pixel-shoes)"/>
    <rect x="6" y="66" width="42" height="2" fill="var(--pixel-dark)" opacity="0.3"/>
  </g>

  <!-- Кадр 2: Одна рука на плече -->
  <g class="frame frame2">
    <rect x="18" y="4" width="12" height="12" fill="var(--pixel-skin)"/>
    <rect x="20" y="8" width="2" height="2" fill="var(--pixel-dark)"/>
    <rect x="18" y="2" width="12" height="4" fill="var(--pixel-hair)"/>
    <rect x="16" y="16" width="16" height="18" fill="var(--pixel-shirt)"/>
    <!-- Левая рука на стене -->
    <rect x="4" y="18" width="12" height="6" fill="var(--pixel-skin)"/>
    <!-- Правая рука касается плеча -->
    <rect x="28" y="18" width="8" height="6" fill="var(--pixel-skin)"/>
    <rect x="18" y="34" width="12" height="10" fill="var(--pixel-shorts)"/>
    <rect x="18" y="44" width="6" height="18" fill="var(--pixel-skin)"/>
    <rect x="24" y="44" width="6" height="18" fill="var(--pixel-skin)"/>
    <rect x="16" y="60" width="8" height="4" fill="var(--pixel-shoes)"/>
    <rect x="24" y="60" width="8" height="4" fill="var(--pixel-shoes)"/>
    <rect x="6" y="66" width="42" height="2" fill="var(--pixel-dark)" opacity="0.3"/>
  </g>
</svg>
