<svg xmlns="http://www.w3.org/2000/svg" width="32" height="32" viewBox="0 0 32 32">
  <!-- Cat avatar - gray cat face -->
  <rect width="32" height="32" fill="#1a1a2e"/>

  <!-- Ears -->
  <rect x="4" y="2" width="6" height="8" fill="#5a5a5a"/>
  <rect x="22" y="2" width="6" height="8" fill="#5a5a5a"/>
  <rect x="6" y="4" width="2" height="4" fill="#f878f8"/>
  <rect x="24" y="4" width="2" height="4" fill="#f878f8"/>

  <!-- Face -->
  <rect x="6" y="8" width="20" height="18" fill="#7a7a7a"/>
  <rect x="8" y="10" width="16" height="14" fill="#9a9a9a"/>

  <!-- Eyes -->
  <rect x="9" y="14" width="5" height="5" fill="#00a800"/>
  <rect x="18" y="14" width="5" height="5" fill="#00a800"/>
  <rect x="11" y="15" width="2" height="3" fill="#0f0f0f"/>
  <rect x="20" y="15" width="2" height="3" fill="#0f0f0f"/>

  <!-- Nose -->
  <rect x="14" y="20" width="4" height="2" fill="#f878f8"/>

  <!-- Whiskers -->
  <rect x="4" y="20" width="6" height="1" fill="#5a5a5a"/>
  <rect x="4" y="22" width="6" height="1" fill="#5a5a5a"/>
  <rect x="22" y="20" width="6" height="1" fill="#5a5a5a"/>
  <rect x="22" y="22" width="6" height="1" fill="#5a5a5a"/>

  <!-- Mouth -->
  <rect x="15" y="22" width="2" height="2" fill="#0f0f0f"/>
</svg>
