<svg xmlns="http://www.w3.org/2000/svg" width="32" height="32" viewBox="0 0 32 32">
  <!-- Cyber Ape - кибернетическая обезьяна с неоновыми элементами -->
  <!-- Dark cyber background -->
  <rect width="32" height="32" fill="#1a1a2e"/>

  <!-- Neon glow effects -->
  <rect x="1" y="2" width="2" height="3" fill="#00ff88" opacity="0.4"/>
  <rect x="29" y="4" width="2" height="4" fill="#ff00ff" opacity="0.4"/>
  <rect x="2" y="27" width="3" height="2" fill="#00ff88" opacity="0.3"/>
  <rect x="27" y="25" width="2" height="3" fill="#ff00ff" opacity="0.3"/>

  <!-- Ears with cyber implants -->
  <rect x="2" y="6" width="6" height="8" fill="#4a3728"/>
  <rect x="24" y="6" width="6" height="8" fill="#4a3728"/>
  <rect x="3" y="7" width="4" height="6" fill="#5d4632"/>
  <rect x="25" y="7" width="4" height="6" fill="#5d4632"/>
  <!-- Cyber ear implants -->
  <rect x="2" y="8" width="2" height="3" fill="#00ff88"/>
  <rect x="28" y="8" width="2" height="3" fill="#00ff88"/>

  <!-- Head - gorilla style -->
  <rect x="5" y="4" width="22" height="22" fill="#3d2b1f"/>
  <rect x="7" y="6" width="18" height="18" fill="#4a3728"/>

  <!-- Brow ridge - prominent -->
  <rect x="6" y="8" width="20" height="4" fill="#3d2b1f"/>
  <rect x="8" y="9" width="16" height="2" fill="#2d1f15"/>

  <!-- Cyber visor/eyes -->
  <rect x="7" y="12" width="8" height="5" fill="#1a1a2e"/>
  <rect x="17" y="12" width="8" height="5" fill="#1a1a2e"/>
  <!-- Glowing cyber eyes -->
  <rect x="8" y="13" width="6" height="3" fill="#ff00ff"/>
  <rect x="18" y="13" width="6" height="3" fill="#ff00ff"/>
  <rect x="9" y="13" width="3" height="2" fill="#ff66ff"/>
  <rect x="19" y="13" width="3" height="2" fill="#ff66ff"/>
  <!-- Eye shine -->
  <rect x="9" y="13" width="1" height="1" fill="#ffffff"/>
  <rect x="19" y="13" width="1" height="1" fill="#ffffff"/>

  <!-- Cyber forehead implant -->
  <rect x="13" y="5" width="6" height="3" fill="#2a2a4a"/>
  <rect x="14" y="6" width="4" height="1" fill="#00ff88"/>

  <!-- Snout - ape style -->
  <rect x="9" y="17" width="14" height="9" fill="#5d4632"/>
  <rect x="10" y="18" width="12" height="7" fill="#6b5344"/>
  <!-- Nostrils -->
  <rect x="12" y="19" width="3" height="2" fill="#2d1f15"/>
  <rect x="17" y="19" width="3" height="2" fill="#2d1f15"/>
  <!-- Mouth -->
  <rect x="11" y="22" width="10" height="3" fill="#2d1f15"/>
  <rect x="12" y="23" width="8" height="2" fill="#3d2b1f"/>
  <!-- Fangs -->
  <rect x="12" y="22" width="2" height="2" fill="#f0f0f0"/>
  <rect x="18" y="22" width="2" height="2" fill="#f0f0f0"/>

  <!-- Cyber jaw implant -->
  <rect x="8" y="24" width="3" height="2" fill="#00ff88"/>
  <rect x="21" y="24" width="3" height="2" fill="#00ff88"/>

  <!-- Side fur -->
  <rect x="4" y="14" width="3" height="6" fill="#3d2b1f"/>
  <rect x="25" y="14" width="3" height="6" fill="#3d2b1f"/>

  <!-- Circuit patterns -->
  <rect x="0" y="15" width="2" height="1" fill="#00ff88" opacity="0.7"/>
  <rect x="1" y="16" width="1" height="3" fill="#00ff88" opacity="0.5"/>
  <rect x="30" y="13" width="2" height="1" fill="#ff00ff" opacity="0.7"/>
  <rect x="30" y="14" width="1" height="4" fill="#ff00ff" opacity="0.5"/>

  <!-- Sparks -->
  <rect x="0" y="28" width="1" height="2" fill="#00ff88" opacity="0.6"/>
  <rect x="31" y="2" width="1" height="2" fill="#ff00ff" opacity="0.6"/>
</svg>
