<svg xmlns="http://www.w3.org/2000/svg" width="32" height="32" viewBox="0 0 32 32">
  <!-- Kraken - terrifying sea monster with tentacles -->
  <!-- Deep ocean background -->
  <rect width="32" height="32" fill="#0a1628"/>

  <!-- Water bubbles -->
  <rect x="4" y="4" width="2" height="2" fill="#0ea5e9" opacity="0.3"/>
  <rect x="26" y="8" width="2" height="2" fill="#38bdf8" opacity="0.2"/>
  <rect x="2" y="20" width="1" height="1" fill="#7dd3fc" opacity="0.3"/>

  <!-- Tentacles behind -->
  <rect x="0" y="20" width="4" height="10" fill="#7e22ce"/>
  <rect x="1" y="22" width="2" height="6" fill="#9333ea"/>
  <rect x="28" y="20" width="4" height="10" fill="#7e22ce"/>
  <rect x="29" y="22" width="2" height="6" fill="#9333ea"/>
  <!-- Tentacle suckers -->
  <rect x="1" y="24" width="2" height="2" fill="#c4b5fd"/>
  <rect x="29" y="24" width="2" height="2" fill="#c4b5fd"/>
  <rect x="1" y="27" width="2" height="2" fill="#c4b5fd"/>
  <rect x="29" y="27" width="2" height="2" fill="#c4b5fd"/>

  <!-- Side tentacles -->
  <rect x="2" y="14" width="5" height="8" fill="#7e22ce"/>
  <rect x="3" y="16" width="3" height="5" fill="#9333ea"/>
  <rect x="25" y="14" width="5" height="8" fill="#7e22ce"/>
  <rect x="26" y="16" width="3" height="5" fill="#9333ea"/>

  <!-- Main head -->
  <rect x="7" y="4" width="18" height="20" fill="#7e22ce"/>
  <rect x="9" y="6" width="14" height="16" fill="#9333ea"/>

  <!-- Head texture -->
  <rect x="10" y="7" width="3" height="2" fill="#a855f7"/>
  <rect x="19" y="7" width="3" height="2" fill="#a855f7"/>
  <rect x="14" y="6" width="4" height="2" fill="#a855f7"/>

  <!-- Eyes - massive glowing -->
  <rect x="9" y="10" width="6" height="6" fill="#0f172a"/>
  <rect x="17" y="10" width="6" height="6" fill="#0f172a"/>
  <rect x="10" y="11" width="4" height="4" fill="#fbbf24"/>
  <rect x="18" y="11" width="4" height="4" fill="#fbbf24"/>
  <rect x="11" y="12" width="3" height="3" fill="#fde047"/>
  <rect x="19" y="12" width="3" height="3" fill="#fde047"/>
  <!-- Pupils -->
  <rect x="12" y="13" width="2" height="2" fill="#0f172a"/>
  <rect x="20" y="13" width="2" height="2" fill="#0f172a"/>
  <!-- Eye glow -->
  <rect x="10" y="11" width="1" height="1" fill="#ffffff"/>
  <rect x="18" y="11" width="1" height="1" fill="#ffffff"/>

  <!-- Beak -->
  <rect x="13" y="17" width="6" height="6" fill="#581c87"/>
  <rect x="14" y="18" width="4" height="4" fill="#1e1b4b"/>
  <rect x="15" y="19" width="2" height="3" fill="#0f172a"/>
  <!-- Beak edges -->
  <rect x="13" y="18" width="1" height="3" fill="#4c1d95"/>
  <rect x="18" y="18" width="1" height="3" fill="#4c1d95"/>

  <!-- Lower tentacles -->
  <rect x="8" y="22" width="4" height="8" fill="#7e22ce"/>
  <rect x="9" y="24" width="2" height="5" fill="#9333ea"/>
  <rect x="20" y="22" width="4" height="8" fill="#7e22ce"/>
  <rect x="21" y="24" width="2" height="5" fill="#9333ea"/>
  <!-- Suckers -->
  <rect x="9" y="26" width="2" height="2" fill="#c4b5fd"/>
  <rect x="21" y="26" width="2" height="2" fill="#c4b5fd"/>

  <!-- Middle tentacles -->
  <rect x="13" y="24" width="6" height="6" fill="#7e22ce"/>
  <rect x="14" y="25" width="4" height="4" fill="#9333ea"/>
  <rect x="15" y="27" width="2" height="2" fill="#c4b5fd"/>

  <!-- Ink particles -->
  <rect x="6" y="8" width="2" height="2" fill="#581c87" opacity="0.5"/>
  <rect x="24" y="6" width="2" height="2" fill="#581c87" opacity="0.5"/>
</svg>
