<svg xmlns="http://www.w3.org/2000/svg" width="32" height="32" viewBox="0 0 32 32">
  <!-- Monkey avatar - cute monkey face -->
  <rect width="32" height="32" fill="#1a1a2e"/>

  <!-- Ears -->
  <rect x="2" y="10" width="6" height="8" fill="#8B4513"/>
  <rect x="24" y="10" width="6" height="8" fill="#8B4513"/>
  <rect x="3" y="12" width="4" height="4" fill="#F5DEB3"/>
  <rect x="25" y="12" width="4" height="4" fill="#F5DEB3"/>

  <!-- Face -->
  <rect x="6" y="6" width="20" height="20" fill="#8B4513"/>

  <!-- Light face area -->
  <rect x="10" y="12" width="12" height="12" fill="#F5DEB3"/>

  <!-- Eyes -->
  <rect x="11" y="14" width="3" height="3" fill="#0f0f0f"/>
  <rect x="18" y="14" width="3" height="3" fill="#0f0f0f"/>
  <rect x="12" y="15" width="1" height="1" fill="#fcfcfc"/>
  <rect x="19" y="15" width="1" height="1" fill="#fcfcfc"/>

  <!-- Eyebrows -->
  <rect x="10" y="12" width="5" height="1" fill="#4a2c00"/>
  <rect x="17" y="12" width="5" height="1" fill="#4a2c00"/>

  <!-- Nostrils -->
  <rect x="13" y="19" width="2" height="2" fill="#8B4513"/>
  <rect x="17" y="19" width="2" height="2" fill="#8B4513"/>

  <!-- Mouth -->
  <rect x="14" y="22" width="4" height="2" fill="#e94560"/>
</svg>
