<svg xmlns="http://www.w3.org/2000/svg" width="32" height="32" viewBox="0 0 32 32">
  <!-- Night Panther - sleek black panther with cyan glowing eyes -->
  <!-- Deep night background -->
  <rect width="32" height="32" fill="#0a0a14"/>

  <!-- Subtle starlight -->
  <rect x="3" y="3" width="1" height="1" fill="#ffffff" opacity="0.3"/>
  <rect x="27" y="5" width="1" height="1" fill="#ffffff" opacity="0.2"/>
  <rect x="5" y="26" width="1" height="1" fill="#ffffff" opacity="0.2"/>
  <rect x="28" y="24" width="1" height="1" fill="#ffffff" opacity="0.3"/>

  <!-- Ears - sleek pointed -->
  <rect x="4" y="3" width="6" height="9" fill="#1a1a24"/>
  <rect x="22" y="3" width="6" height="9" fill="#1a1a24"/>
  <rect x="6" y="5" width="2" height="5" fill="#0f0f18"/>
  <rect x="24" y="5" width="2" height="5" fill="#0f0f18"/>
  <!-- Inner ear cyan glow -->
  <rect x="6" y="6" width="2" height="3" fill="#06b6d4" opacity="0.3"/>
  <rect x="24" y="6" width="2" height="3" fill="#06b6d4" opacity="0.3"/>

  <!-- Head - sleek black -->
  <rect x="6" y="9" width="20" height="18" fill="#1a1a24"/>
  <rect x="8" y="11" width="16" height="14" fill="#252530"/>

  <!-- Subtle fur highlights -->
  <rect x="9" y="12" width="2" height="1" fill="#32323e"/>
  <rect x="21" y="12" width="2" height="1" fill="#32323e"/>

  <!-- Eyes - glowing cyan -->
  <rect x="8" y="14" width="6" height="5" fill="#0a0a14"/>
  <rect x="18" y="14" width="6" height="5" fill="#0a0a14"/>
  <rect x="9" y="15" width="4" height="3" fill="#06b6d4"/>
  <rect x="19" y="15" width="4" height="3" fill="#06b6d4"/>
  <rect x="10" y="15" width="2" height="2" fill="#67e8f9"/>
  <rect x="20" y="15" width="2" height="2" fill="#67e8f9"/>
  <!-- Eye highlight -->
  <rect x="10" y="15" width="1" height="1" fill="#ffffff"/>
  <rect x="20" y="15" width="1" height="1" fill="#ffffff"/>
  <!-- Eye glow effect -->
  <rect x="7" y="15" width="1" height="2" fill="#06b6d4" opacity="0.4"/>
  <rect x="24" y="15" width="1" height="2" fill="#06b6d4" opacity="0.4"/>

  <!-- Snout - elegant -->
  <rect x="12" y="19" width="8" height="6" fill="#1a1a24"/>
  <rect x="13" y="20" width="6" height="4" fill="#252530"/>
  <!-- Nose -->
  <rect x="14" y="20" width="4" height="2" fill="#0f0f18"/>
  <!-- Whisker dots -->
  <rect x="8" y="21" width="2" height="1" fill="#32323e"/>
  <rect x="22" y="21" width="2" height="1" fill="#32323e"/>
  <rect x="9" y="23" width="2" height="1" fill="#32323e"/>
  <rect x="21" y="23" width="2" height="1" fill="#32323e"/>
  <!-- Mouth hint -->
  <rect x="15" y="23" width="2" height="1" fill="#0f0f18"/>

  <!-- Cyan glow accents -->
  <rect x="4" y="16" width="1" height="2" fill="#06b6d4" opacity="0.3"/>
  <rect x="27" y="16" width="1" height="2" fill="#06b6d4" opacity="0.3"/>
</svg>
