<svg xmlns="http://www.w3.org/2000/svg" width="32" height="32" viewBox="0 0 32 32">
  <!-- Rabbit avatar - white bunny face -->
  <rect width="32" height="32" fill="#1a1a2e"/>

  <!-- Ears -->
  <rect x="8" y="0" width="5" height="14" fill="#fcfcfc"/>
  <rect x="19" y="0" width="5" height="14" fill="#fcfcfc"/>
  <rect x="10" y="2" width="2" height="10" fill="#f878f8"/>
  <rect x="21" y="2" width="2" height="10" fill="#f878f8"/>

  <!-- Face -->
  <rect x="6" y="12" width="20" height="16" fill="#fcfcfc"/>
  <rect x="8" y="14" width="16" height="12" fill="#fcfcfc"/>

  <!-- Eyes -->
  <rect x="10" y="16" width="4" height="4" fill="#e94560"/>
  <rect x="18" y="16" width="4" height="4" fill="#e94560"/>
  <rect x="11" y="17" width="2" height="2" fill="#0f0f0f"/>
  <rect x="19" y="17" width="2" height="2" fill="#0f0f0f"/>

  <!-- Nose -->
  <rect x="14" y="21" width="4" height="2" fill="#f878f8"/>

  <!-- Mouth -->
  <rect x="15" y="23" width="2" height="1" fill="#0f0f0f"/>
  <rect x="13" y="24" width="2" height="2" fill="#0f0f0f"/>
  <rect x="17" y="24" width="2" height="2" fill="#0f0f0f"/>

  <!-- Cheeks -->
  <rect x="6" y="20" width="4" height="4" fill="#f0e0e0"/>
  <rect x="22" y="20" width="4" height="4" fill="#f0e0e0"/>
</svg>
